<svg id="Sync" xmlns="http://www.w3.org/2000/svg" width="28" height="28" viewBox="0 0 28 28">
  <circle id="Ellipse_1" data-name="Ellipse 1" cx="14" cy="14" r="14" fill="#5ac4f6"/>
  <path id="Path_5" data-name="Path 5" d="M13.659,7.2a5.579,5.579,0,0,1-1.6,4.8,5.794,5.794,0,0,1-7.217.72L6.4,11.2.669,10.4l.8,5.6L3.22,14.323a8.088,8.088,0,0,0,10.46-.72A7.815,7.815,0,0,0,16,7.659ZM3.95,4a5.79,5.79,0,0,1,7.215-.72L9.6,4.8l5.734.8-.8-5.6L12.788,1.681a8.086,8.086,0,0,0-10.46.72A7.815,7.815,0,0,0,.01,8.344L2.349,8.8A5.579,5.579,0,0,1,3.95,4Z" transform="translate(6.305 6)" fill="#fff"/>
</svg>
